<svg version="1.2" xmlns="http://www.w3.org/2000/svg" viewBox="0 0 2044 372" width="2044" height="372"><style>.a{fill:#1658c4}</style><path class="a" d="m123.8 191.8v-12.2q27.6 0 44.9-12.5 17.2-12.5 17.2-35.3 0-22.8-24.9-53-18.1-23.3-42.5-34.5-24.4-11.2-45.1-11.2-18 0-26 6.2-7.9 6.1-9.2 14-1.4 8 1.3 14.8 3.7 9.6 12.7 15.7 9 6.1 19.9 12.2 10.9 6.1 21 14.1 10.1 7.9 16.6 20.9 6.7 13 6.7 33.7v200.6h-116.2v-248.4q0-34.5 11.9-56.7 12-22.3 31.1-35 19-12.8 40.8-18 21.7-5.3 41.4-5.4 49.9 0.1 88.6 11 38.7 10.8 61.2 32 22.6 21.2 22.6 52.5 0 32.9-25.2 54.1-25.2 21.3-67.6 30.8 19.1 5.8 37.7 23.4 13.8 13.8 21 28.3 7.1 14.6 10.8 28.2 3.7 13.5 7.4 24.7 3.8 11.1 10.7 18 13.7 13.8 27.2 10.9 13.6-2.9 25.8-15.7l8.5 8.5q-13.3 17.5-33.4 32.1-20.2 14.6-43.5 21.7-23.4 7.2-47.3 2.7-23.8-4.5-44.5-25.2-13.8-13.8-17.3-30.2-3.4-16.5-1.6-32.9 1.9-16.5 4.2-31.9 2.5-15.4 0.6-27.3-1.8-11.9-12.2-18.8-10.4-6.9-35.3-6.9z"/><path class="a" d="m417.2 235.8q1.6 2.6 3.2 5.5 1.6 3 3.7 5.6 46.1 72.7 94.7 78.3 48.6 5.6 94.2-44.9 2.6 2.2 5.3 4.9 2.7 2.6 4.8 5.2-22.3 25.5-43.5 43-21.3 17.5-48.4 26.6-27 9-67.3 9-47.8 0-83.3-18.8-35.5-18.8-55.5-52-19.9-33.2-19.9-76.7 0-43.6 19.9-76.4 20-32.9 55.5-51.8 35.5-18.8 83.3-18.8 41.9 0 67.1 11.9 25.2 12 31.8 31.4 6.7 19.3-6.3 41.4-13 22-47.5 42.4-34.5 20.4-91.8 34.2zm45.1-100.8q-16.5-27-37.7-34.7-21.2-7.8-36.6 1.8-20.1 13.3-11.9 45.4 8.2 32.1 34.2 77.2 22.3-4.8 39.3-17.5 17-12.8 21.7-31.4 4.8-18.5-9-40.8z"/><path class="a" d="m696.8 148.3q40.3 10.1 70 25.2 29.7 15.1 45.3 37.9 15.7 22.8 14.7 56.8-0.6 25.4-9.9 48.5-9.3 23.1-29.4 37.7-20.2 14.6-53.6 14.6-18 0-30.8-5.3-12.7-5.3-23-11.9-10.4-6.7-20.7-12-10.4-5.3-24.2-5.3-32.9 0-32.9 30.8h-13.2q-0.1-9.6 1.3-26 1.3-16.4 6.6-33.5 5.3-16.9 17-28.4 11.6-11.4 32.9-11.4 20.6 0 33.9 9.1 13.3 9 22.3 22.6 9 13.5 16 26.7 6.9 13.3 14.5 21.8 7.8 8.5 18.9 7.4 10-1.1 17-9.8 6.9-8.8 3.7-22.5-2.2-10.1-10.4-20.5-8.2-10.4-25.4-19.4-17.3-9-47-14.3-24.9-4.8-48.6-17.8-23.6-13-39.2-34.2-15.6-21.2-16.7-51.4-0.5-22.8 10.1-43.3 10.5-20.5 28.6-33.1 18-12.8 39.3-12.8 18 0 31.5 4.3 13.6 4.2 25 9.5 11.4 5.3 22.8 9.5 11.4 4.3 25.2 4.3 15.4 0 26.5-6.1 11.1-6.1 11.2-17.8h13.8q0 9.6-2.4 23.6-2.4 14.1-8.5 27.6-6.1 13.5-17 22.9-10.9 9.2-27.9 9.2-12.7 0-23-7.4-10.4-7.4-19.7-18.6-9.3-11.1-18.3-22-9-10.9-18.5-18.3-9.6-7.4-20.7-7.4-11.7 0-18.6 6.6-6.9 6.6-5.3 16.4 1.6 9.9 14.9 20 13.2 10.1 41.9 17.5z"/><path class="a" d="m1145.1 365.3h-13.3q0-20.2-6.9-29.5-6.9-9.3-17.4-11.4-20.8-4.2-37 1.6-16.2 5.9-30.7 15.7-14.6 9.7-30.5 17.7-15.9 8-35.6 7.9-45.7 0.1-76.2-18.8-30.5-18.8-43.2-51.4-12.7-32.7-6.3-74 5.3-31.8 4.7-54.4-0.5-22.6-15.9-35.9-10.1-8.9-22.8-6.3-12.7 2.7-25.5 14.8l-8-8.5q13.4-17.4 35.4-32.3 22-14.8 47.4-22 25.5-7.1 49.3-2.7 23.9 4.5 40.4 25.8 12.8 15.9 16.5 36.1 3.7 20.2 2 42.7-1.6 22.5-5.2 45.9-6.4 40.8-5.1 65.5 1.3 24.6 8.3 36.3 6.9 11.7 17.2 14.1 10.3 2.4 22-1.4 10.7-3.6 15.2-12.9 4.5-9.3 5-22.6v-227.1h116.2z"/><path class="a" d="m1176.8 78.2h13.4q0 20.2 6.8 29.2 6.9 9 18.8 10.6 12 1.6 26.4 0 13.7-3.1 25.4-10.1 11.6-6.9 23.3-14.6 11.7-7.6 24.7-13.2 13-5.6 29.5-5.6 30.7 0 53.6 9 22.8 9 37.6 24.9 12.8-6.3 24.7-14.2 11.9-8 25.4-13.9 13.6-5.8 30-5.8 46.2 0 74.3 18.8 28.1 18.9 38.7 51.3 10.7 32.3 3.8 73.7-4.8 31.8-4.5 54.1 0.2 22.3 15.6 36.1 10.6 9 23 6.7 12.5-2.4 25.3-15.2l8 8.5q-13.3 17.5-35.3 32.3-22 14.9-47.3 22-25.2 7.2-49.1 2.7-23.8-4.5-40.8-25.7-12.7-16.4-16.4-36.4-3.8-19.9-1.9-42.4 1.9-22.6 5-45.9 6.4-40.8 5.9-65.3-0.5-24.4-5.6-36-5-11.7-13-13.8-7.9-2.1-16.9 1-17 6.5-21.9 20.8-4.7 14.2-3.1 32.3 7.5 28.7 1.6 64.2-3.7 25-5.3 47.5-1.6 22.6 1 38.2 2.7 15.6 11.7 20.9 9 5.4 26.1-4.7l5.8 10.6q-14.9 13.2-33.5 23-18.5 9.9-38.4 13.3-20 3.5-38.8-2.3-18.8-5.8-33.6-25-12.8-16.4-16.5-36.4-3.7-19.9-2.1-42.4 1.5-22.6 4.7-45.9 6.4-40.8 5.9-65.3-0.6-24.4-5.6-36-5-11.7-13-13.8-8-2.1-16.9 1-12.3 4.9-16 18.7-3.7 13.7-4.2 33.3v212.3h-116.3z"/><path class="a" d="m1850.2 74.5q45.5 0 76 18.8 30.5 18.9 43.5 51.3 13 32.3 6.2 73.7-5.3 31.8-4.8 54.1 0.5 22.3 15.9 36.1 10.6 9 23.1 6.7 12.5-2.4 25.2-15.2l7.9 8.5q-11.1 14.9-28.6 27.6-17.5 12.7-37.9 21.2c-13.7 5.7-27.5 8.9-41.5 9.8q-20.9 1.3-39.2-6.6-18.3-8-30.5-27.6-2.1 14.9-15.1 24.7-13 9.7-46.4 9.7-70.6 0-104-21.7-33.4-21.7-33.4-62.6 0-84.3 147.5-84.3 12.1 0 23.6 0.5 11.4 0.5 21.5 1.6 6.3-48.3 3.4-73.5-3-25.2-13.3-33.1-10.3-8-27.3-3.3-10.6 3.2-15.4 14.4-4.8 11.2-7.9 26-3.2 14.8-8.5 29.1-5.4 14.4-16.3 23.9-10.8 9.5-31.5 9.5-22.8 0.1-37.2-10.5-14.3-10.6-19.6-35.8-5.3-25.2-0.5-69.3h13.8q0 14.9 5 24.7 5.1 9.8 18.3 9.8 12.8 0 25.8-5.9 13-5.8 27.8-13.2 14.8-7.4 33.2-13.3 18.3-5.8 41.2-5.8zm1.5 197.9q0.5-13.8 2.1-28.1 1.6-14.4 3.8-29.2v-2.1q-20.8-2.6-39.1-2.1-18.3 0.5-29.4 6.4-15.4 7.4-17.5 28-2.1 20.7 9.1 48.3 14.2 36.1 30.6 48.6 16.5 12.5 31.9 5.1 6.4-3.3 8-15 1.5-11.6 1-27.8-0.5-16.1-0.5-32.1z"/></svg>